<svg xmlns="http://www.w3.org/2000/svg" xml:space="preserve" width="392.95999" height="279.67999" viewBox="0 0 392.95999 279.67999"><defs><clipPath id="a" clipPathUnits="userSpaceOnUse"><path d="M0 0h294.72v209.76H0Z" style="clip-rule:evenodd"/></clipPath></defs><g clip-path="url(#a)" transform="matrix(1.33333 0 0 -1.33333 0 279.68)"><path d="M0 209.86h212.44V44.914L294.8.01H82.363L0 44.914Z" style="fill:#000;fill-opacity:1;fill-rule:evenodd;stroke:none"/></g><path d="M103.25 19.964a3.8 3.8 0 0 1-.92-.101 3 3 0 0 1-.71-.254 1.6 1.6 0 0 1-.45-.349.6.6 0 0 1-.16-.383v-.322a.6.6 0 0 1 .16-.382q.165-.195.45-.349c.19-.103.43-.188.71-.255.27-.067.58-.101.92-.101q.51 0 .93.101c.27.067.51.152.7.255q.285.154.45.349c.11.13.16.257.16.382v.322a.6.6 0 0 1-.16.383 1.6 1.6 0 0 1-.45.349 3 3 0 0 1-.7.254q-.42.102-.93.101m-27.254.04v-2.12h4.388v2.12zm14.956.108a3.7 3.7 0 0 1-.845-.094 3.3 3.3 0 0 1-.711-.248 1.7 1.7 0 0 1-.496-.363.64.64 0 0 1-.188-.436v-.349q0-.228.188-.436.187-.207.496-.362t.711-.248.845-.094.846.094q.402.093.711.248t.496.362a.64.64 0 0 1 .188.436v.349a.64.64 0 0 1-.188.436q-.187.209-.496.363a3.3 3.3 0 0 1-.711.248 3.8 3.8 0 0 1-.846.094m20.498.577h1.7v-2.63h6.47V16.61h-8.17zm-8.2.644q.87 0 1.59-.175c.48-.116.89-.277 1.24-.483.34-.206.61-.452.79-.738.19-.286.29-.599.29-.939v-.564c0-.339-.1-.653-.29-.939-.18-.286-.45-.532-.79-.738a4.6 4.6 0 0 0-1.24-.483 6.8 6.8 0 0 0-1.59-.174q-.87 0-1.59.174-.72.176-1.23.483c-.35.206-.613.452-.801.738q-.282.43-.282.939v.564q0 .51.282.939c.188.286.451.532.801.738q.51.309 1.23.483.72.175 1.59.175m-28.931.08h7.742v-4.937h-7.742zm16.633.081a7 7 0 0 0 1.543-.161 4.2 4.2 0 0 0 1.235-.477q.523-.315.825-.758.302-.442.302-1.006v-.59q0-.564-.302-1.007a2.6 2.6 0 0 0-.825-.758 4.2 4.2 0 0 0-1.235-.476 7 7 0 0 0-1.543-.161q-.832 0-1.543.161a4.2 4.2 0 0 0-1.234.476q-.523.315-.825.758a1.75 1.75 0 0 0-.302 1.007v.59q0 .564.302 1.006.301.443.825.758.523.316 1.234.477.712.16 1.543.161m91.628 4.937v-5.273h2.67v5.273zm-35.86.202c-.57 0-.97-.197-1.22-.591-.24-.393-.37-.97-.37-1.731v-1.086c0-.761.13-1.338.37-1.731.25-.394.65-.591 1.22-.591.56 0 .96.197 1.21.591s.37.97.37 1.731v1.086c0 .761-.12 1.338-.37 1.731-.25.394-.65.591-1.21.591m53.18 1.1h1.52v-9.674h-1.72v7.742l-2.2-1.262-.83 1.396zm-70.18 0h1.78l1.77-7.179 1.96 7.179h1.65l1.95-7.165 1.83 7.165h1.65l-2.67-9.674h-1.63l-1.96 7.446-2.04-7.446h-1.66zm38.45.04h4.82v-1.462h-3.14v-5.059h.48q.825 0 1.65.04.84.04 1.68.175l.18-1.449q-.825-.148-1.74-.188t-1.77-.04h-2.16zm44.93.067h5.77v-2.469q0-.67-.06-1.221a4.7 4.7 0 0 0-.26-1.026 3.7 3.7 0 0 0-.56-.919 6.6 6.6 0 0 0-.91-.919q-.57-.477-1.38-1.02a60 60 0 0 0-1.92-1.228l-.9 1.342q1.005.604 1.71 1.073c.48.313.87.602 1.19.866q.48.396.75.751c.19.237.32.477.42.718q.135.363.18.765c.03.268.04.568.04.899v.926h-4.07zm-32.21.027h6.05v-8.144h-6.05zm-24.85 0h5.7v-3.086q0-.966-.21-1.684c-.14-.479-.4-.935-.77-1.369q-.57-.65-1.56-1.328c-.67-.452-1.53-.968-2.59-1.55l-.82 1.382q.945.51 1.65.933t1.2.792c.33.246.6.48.8.704s.35.447.46.671l-4.09-.107-.06 1.449 4.32.067v1.677h-4.03zm51.27.013c.45 0 .87-.058 1.23-.174.37-.116.68-.28.94-.49s.46-.465.61-.765q.21-.449.21-.986v-.134q0-.282-.06-.61a2 2 0 0 0-.22-.631 2.2 2.2 0 0 0-.43-.557 2.1 2.1 0 0 0-.69-.416c.65-.116 1.12-.371 1.43-.765q.45-.59.45-1.422v-.201q0-.55-.21-1.06c-.14-.34-.36-.64-.65-.899a3.3 3.3 0 0 0-1.1-.624c-.45-.157-.96-.235-1.55-.235-.57 0-1.11.087-1.63.262q-.795.261-1.47.812l.84 1.341c.24-.17.45-.313.64-.429s.38-.208.56-.275.35-.114.52-.141.35-.04.55-.04c.61 0 1.06.121 1.34.362.29.242.43.577.43 1.006v.175c0 .474-.14.821-.41 1.04q-.42.328-1.35.328h-1.3v1.476h1.16c.3 0 .55.034.74.101q.285.1.45.282c.11.12.18.268.22.442q.06.262.06.571v.107c0 .367-.12.633-.35.798q-.36.249-.96.249c-.41 0-.75-.076-1-.228a3.2 3.2 0 0 1-.71-.577l-1.16.912c.32.42.7.758 1.15 1.013s1.02.382 1.72.382m-82.04 0c.54 0 1.06-.056 1.55-.167a4.7 4.7 0 0 0 1.47-.638l-.8-1.328c-.4.25-.76.414-1.1.49s-.7.114-1.09.114c-.3 0-.57-.036-.79-.108a1.8 1.8 0 0 1-.56-.281 1.5 1.5 0 0 1-.33-.376.86.86 0 0 1-.1-.403v-.161c0-.232.05-.42.16-.563q.18-.215.45-.356c.19-.094.41-.17.67-.228q.375-.087.81-.181.855-.187 1.44-.463c.39-.183.7-.391.94-.624q.36-.348.51-.771c.1-.282.16-.588.16-.919v-.175c0-.536-.1-.986-.29-1.348-.2-.362-.46-.653-.79-.872a3.3 3.3 0 0 0-1.14-.47 6.3 6.3 0 0 0-3.31.181c-.3.099-.57.217-.83.356q-.375.207-.66.436l.83 1.368q.45-.375 1.14-.657c.47-.188.99-.282 1.57-.282.62 0 1.06.11 1.34.329q.42.329.42.825v.148c0 .393-.15.686-.44.879s-.71.351-1.27.476c-.4.089-.8.183-1.21.282a3.9 3.9 0 0 0-1.1.442 2.36 2.36 0 0 0-.8.799c-.2.335-.31.785-.31 1.348v.175q0 .442.18.919c.11.317.31.61.57.879.27.268.63.489 1.07.664.44.174.99.261 1.64.261m21.45.242q.84 0 1.44-.268c.41-.179.74-.43 1-.752.27-.322.46-.704.58-1.147q.18-.665.18-1.442v-1.49q0-.791-.18-1.449a3 3 0 0 0-.58-1.14 2.6 2.6 0 0 0-1-.752q-.6-.268-1.44-.268c-.57 0-1.05.089-1.45.268-.41.179-.74.43-1 .752-.27.322-.46.702-.58 1.14q-.18.658-.18 1.449v1.49q0 .777.18 1.442c.12.443.31.825.58 1.147.26.322.59.573 1 .752.4.178.88.268 1.45.268m-37.06.134h1.69v-5.179q1.41 0 2.61.047c.8.031 1.6.087 2.38.168l.15-1.396a27 27 0 0 0-1.22-.114c-.43-.031-.91-.058-1.45-.08-.54-.023-1.14-.038-1.82-.047q-1.005-.014-2.34-.014zm-22.33.188h1.717v-1.825q0-.335.034-.597a1.76 1.76 0 0 1 .409-.926q.174-.207.443-.422.389-.323.905-.698a45 45 0 0 1 1.027-.725l-.939-1.18a31 31 0 0 0-1.704 1.247q-.35.268-.624.504-.275.234-.329.395h-.014a1.4 1.4 0 0 0-.241-.362 6 6 0 0 0-.59-.563 42.321 42.321 0 0 0-2.04-1.651l-1.006 1.248q.59.429 1.073.819t.966.831q.416.377.665.873.248.496.248 1.153zm-12.407.04h1.717v-1.516q0-.336.034-.597a1.75 1.75 0 0 1 .409-.926q.175-.208.443-.423.389-.321.906-.697.516-.376 1.026-.725l-.939-1.181a35 35 0 0 0-1.704 1.248q-.35.269-.624.503-.275.236-.329.396h-.013a1.4 1.4 0 0 0-.242-.362 7 7 0 0 0-.59-.564 49 49 0 0 0-2.04-1.65l-1.006 1.248q.591.43 1.074.818.483.39.966.832.415.376.664.872.248.497.248 1.154zm99.557.215h1.61v-11.62h-1.61v6.146h-2.29v1.462h2.29zm46.65.255h1.7V16.476h-1.7zm-32.27 0h1.7V16.476h-1.7zm-11.83 0h1.61V16.476h-1.61zm-13.37 0h1.7v-4.482h1.72v-1.476h-1.72v-6.52h-1.7zm-12.3 0h1.7v-4.428h1.72V23.05h-1.72v-6.574h-1.7zm-33.62 0h1.68v-8.883h-1.68v3.932h-3.17v1.409h3.17v.738h-3.17v1.408h3.17zm-12.31 0h1.69v-7.541h-1.69v2.684h-1.95v1.422h1.95zm-12.304 0h1.691v-7.393h-1.691v3.435h-2.2v1.435h2.2zm-12.756 0h1.691V26.27h1.637v-1.476h-1.637v-2.817H80.37Zm19.433.107h1.687v-1.368h2.41V26.27h-2.41v-.63c0-.161.02-.307.04-.436q.03-.195.12-.369c.06-.117.14-.231.25-.343.12-.111.26-.234.44-.368.27-.206.57-.414.89-.624.33-.211.67-.428 1.04-.651l-.88-1.194q-.435.268-.87.557c-.29.192-.57.377-.82.556-.29.206-.51.369-.68.49-.16.121-.25.217-.28.289h-.01c-.03-.081-.14-.208-.34-.383a10 10 0 0 0-.761-.61 49.29 49.29 0 0 0-1.811-1.302l-.966 1.248q.643.429 1.227.859t1.013.791q.35.31.53.644.181.336.181.846v.63h-2.535v1.423h2.535z" style="fill:#000;fill-opacity:1;fill-rule:evenodd;stroke:none" transform="matrix(1.33333 0 0 -1.33333 0 279.68)"/><path d="M30.055 191.02q2.5-.03 4.164-.87a10.1 10.1 0 0 0 2.907-2.19l-3.231-2.45c-.894 1.35-2.165 2.03-3.811 2.02q-1.455-.015-2.199-.69c-.497-.44-.746-1.01-.748-1.7.035-.82.464-1.44 1.286-1.84q1.233-.6 3.018-1.14a18 18 0 0 0 2.849-1.13 6.36 6.36 0 0 0 2.296-1.9q.91-1.2.944-3.21a6.34 6.34 0 0 0-.859-3.17c-.569-.99-1.394-1.79-2.476-2.41-1.081-.63-2.394-.95-3.938-.97q-2.815.045-4.806 1.08-1.991 1.05-3.42 2.7l3.578 2.83c.538-.93 1.199-1.63 1.984-2.12s1.662-.73 2.635-.74q1.565.045 2.383.87c.545.55.819 1.2.823 1.96q-.066 1.29-1.361 1.92c-.864.42-1.873.8-3.029 1.12-.974.29-1.913.64-2.819 1.07a6 6 0 0 0-2.241 1.8c-.588.77-.892 1.81-.913 3.13.038 1.73.697 3.16 1.976 4.28 1.279 1.13 2.948 1.71 5.008 1.75" style="fill:#6dcef5;fill-opacity:1;fill-rule:evenodd;stroke:none" transform="matrix(1.33333 0 0 -1.33333 0 279.68)"/><path d="M88.591 191.02q2.5-.03 4.164-.87a10.1 10.1 0 0 0 2.907-2.19l-3.231-2.45c-.894 1.35-2.165 2.03-3.812 2.02q-1.454-.015-2.198-.69c-.497-.44-.746-1.01-.748-1.7.035-.82.464-1.44 1.286-1.84q1.233-.6 3.018-1.14a18 18 0 0 0 2.849-1.13 6.36 6.36 0 0 0 2.296-1.9q.91-1.2.943-3.21a6.3 6.3 0 0 0-.859-3.17c-.568-.99-1.393-1.79-2.475-2.41-1.081-.63-2.394-.95-3.938-.97q-2.815.045-4.807 1.08-1.99 1.05-3.419 2.7l3.578 2.83c.538-.93 1.199-1.63 1.984-2.12s1.662-.73 2.635-.74q1.565.045 2.383.87c.545.55.819 1.2.823 1.96q-.066 1.29-1.361 1.92c-.864.42-1.873.8-3.029 1.12-.974.29-1.914.64-2.819 1.07a6 6 0 0 0-2.241 1.8c-.588.77-.893 1.81-.913 3.13.038 1.73.697 3.16 1.976 4.28 1.279 1.13 2.948 1.71 5.008 1.75M145.6 191.02c2.2-.02 4.12-.53 5.76-1.51 1.64-.97 2.92-2.27 3.83-3.88l-3.47-2.08q-1.98 3.675-6.09 3.66c-1.32-.01-2.5-.34-3.53-.97a6.9 6.9 0 0 1-2.45-2.53c-.6-1.05-.9-2.23-.92-3.51.02-1.32.32-2.5.92-3.55.6-1.06 1.43-1.89 2.48-2.52 1.05-.62 2.27-.93 3.65-.95 1.6.02 2.92.43 3.95 1.24 1.03.82 1.74 1.92 2.14 3.33h-6.73v3.75h10.94v-1.56c-.01-1.92-.43-3.68-1.26-5.27a9.83 9.83 0 0 0-3.56-3.82c-1.54-.96-3.36-1.45-5.48-1.48-2.21.03-4.13.53-5.76 1.51-1.64.98-2.9 2.28-3.81 3.91-.9 1.63-1.36 3.43-1.37 5.41.02 2.02.49 3.85 1.41 5.47.91 1.63 2.18 2.92 3.79 3.88s3.47 1.45 5.56 1.47M45.117 190.73h3.954l7.504-21.07h-4.098l-1.299 3.76H43.01l-1.298-3.76h-4.099zm1.992-5.57-2.771-7.99h5.542zM58.439 190.73h3.894l6.381-8.86 6.641 8.86h3.721v-21.07h-3.923v14.78l-6.468-8.72-6.323 8.58v-14.64h-3.923zM97.702 190.73h3.918V176.7c.03-1.06.37-1.94 1.04-2.62.68-.69 1.54-1.05 2.6-1.07 1.05.02 1.93.38 2.62 1.07.69.68 1.05 1.56 1.08 2.62v14.03h3.92v-13.8c-.04-2.47-.76-4.35-2.16-5.63-1.39-1.28-3.2-1.92-5.43-1.93-2.23.01-4.05.65-5.439 1.93-1.391 1.28-2.107 3.16-2.149 5.63zM115.37 190.73h4.44l9.13-14.34v14.34h3.92v-21.07h-4.18l-9.39 14.81v-14.81h-3.92z" style="fill:#fff;fill-opacity:1;fill-rule:evenodd;stroke:none" transform="matrix(1.33333 0 0 -1.33333 0 279.68)"/><path d="M30.055 162.96q2.5-.03 4.164-.87a10.1 10.1 0 0 0 2.907-2.19l-3.231-2.45c-.894 1.35-2.165 2.02-3.811 2.02q-1.455-.03-2.199-.69-.745-.675-.748-1.71.053-1.23 1.286-1.83c.822-.4 1.828-.79 3.018-1.14.975-.3 1.925-.67 2.849-1.13s1.69-1.1 2.296-1.9q.91-1.215.944-3.21a6.3 6.3 0 0 0-.859-3.17c-.569-.99-1.394-1.8-2.476-2.42q-1.622-.93-3.938-.96-2.815.03-4.806 1.08a11.4 11.4 0 0 0-3.42 2.7l3.578 2.83c.538-.93 1.199-1.64 1.984-2.12a4.87 4.87 0 0 1 2.635-.74c1.043.02 1.838.31 2.383.86s.819 1.21.823 1.97c-.044.85-.498 1.49-1.361 1.91-.864.43-1.873.8-3.029 1.12q-1.46.435-2.819 1.08a5.9 5.9 0 0 0-2.241 1.79c-.588.77-.892 1.82-.913 3.14.038 1.72.697 3.15 1.976 4.28 1.279 1.12 2.948 1.71 5.008 1.75" style="fill:#6dcef5;fill-opacity:1;fill-rule:evenodd;stroke:none" transform="matrix(1.33333 0 0 -1.33333 0 279.68)"/><path d="M37.584 162.67h4.099l3.983-14.75 4.416 14.75h3.868l4.387-14.69 3.955 14.69h3.954L60.3 141.6h-3.897l-4.416 14.86-4.416-14.86h-3.983zM51.844 134.89c2-.02 3.803-.5 5.409-1.43 1.607-.93 2.883-2.2 3.829-3.79l-3.435-2.19c-.614 1.1-1.393 1.97-2.339 2.59q-1.418.945-3.464.96-3.066-.075-4.968-2.01t-1.96-4.95q.06-2.955 1.949-4.89 1.889-1.95 4.893-2.01 2.186.03 3.702 1.11c1.01.72 1.797 1.67 2.36 2.84l3.579-1.87q-1.42-2.73-3.911-4.35c-1.661-1.08-3.542-1.63-5.644-1.66-2.178.03-4.075.52-5.692 1.48a10.07 10.07 0 0 0-3.767 3.87c-.895 1.63-1.349 3.45-1.362 5.48.021 2.11.505 3.98 1.452 5.6a10.24 10.24 0 0 0 3.857 3.81c1.624.93 3.461 1.39 5.512 1.41" style="fill:#fff;fill-opacity:1;fill-rule:evenodd;stroke:none" transform="matrix(1.33333 0 0 -1.33333 0 279.68)"/><path d="M29.882 134.6h3.954l7.504-21.07h-4.098l-1.299 3.76h-8.168l-1.299-3.76h-4.098zm1.991-5.57-2.77-7.99h5.541z" style="fill:#6dcef5;fill-opacity:1;fill-rule:evenodd;stroke:none" transform="matrix(1.33333 0 0 -1.33333 0 279.68)"/><path d="M69.173 134.6h3.954l7.504-21.07h-4.098l-1.299 3.76h-8.168l-1.298-3.76h-4.099zm1.992-5.57-2.771-7.99h5.541zM82.495 134.6h5.742c2.374-.02 4.389-.48 6.046-1.4 1.656-.92 2.918-2.16 3.786-3.74s1.304-3.38 1.31-5.39q-.025-3.03-1.419-5.4c-.93-1.58-2.215-2.83-3.857-3.74s-3.539-1.38-5.693-1.4h-5.915zm3.922-3.63v-13.8h1.531c2.334.04 4.163.7 5.487 1.97 1.323 1.28 1.997 2.92 2.021 4.93.007 2.05-.62 3.71-1.88 4.96-1.261 1.26-3.194 1.9-5.801 1.94zM100.94 134.6h12.49v-3.75h-8.57V126h8.57v-3.75h-8.57v-4.97h8.57v-3.75h-12.49zM115.37 134.6h3.89l6.39-8.86 6.64 8.86h3.72v-21.07h-3.92v14.78l-6.47-8.72-6.33 8.58v-14.64h-3.92zM137.79 134.6h4.33l4.36-7.3 4.38 7.3h4.33l-6.78-11.17v-9.9h-3.92v9.99zM47.779 106.83c2.024-.03 3.847-.52 5.468-1.48a10.8 10.8 0 0 0 3.863-3.88q1.43-2.446 1.464-5.467-.034-3.037-1.464-5.476a10.76 10.76 0 0 0-3.863-3.876q-2.432-1.438-5.468-1.472-3.036.034-5.46 1.472a10.7 10.7 0 0 0-3.849 3.876q-1.424 2.439-1.457 5.476.033 3.021 1.457 5.467a10.8 10.8 0 0 0 3.849 3.88c1.616.96 3.436 1.45 5.46 1.48m0-3.87c-1.294-.01-2.457-.33-3.488-.95a6.9 6.9 0 0 1-2.456-2.496q-.907-1.569-.928-3.511.02-1.942.928-3.511a6.9 6.9 0 0 1 2.456-2.497q1.547-.928 3.488-.951 1.941.023 3.496.951a6.9 6.9 0 0 1 2.469 2.497q.915 1.569.936 3.511-.021 1.942-.936 3.511a6.9 6.9 0 0 1-2.469 2.496c-1.036.62-2.202.94-3.496.95" style="fill:#fff;fill-opacity:1;fill-rule:evenodd;stroke:none" transform="matrix(1.33333 0 0 -1.33333 0 279.68)"/><path d="M23.157 106.54h11.919v-3.75H27.08v-4.855h7.996v-3.749H27.08v-8.718h-3.923z" style="fill:#6dcef5;fill-opacity:1;fill-rule:evenodd;stroke:none" transform="matrix(1.33333 0 0 -1.33333 0 279.68)"/><path d="M60.043 106.54h6.753c2.501-.04 4.435-.71 5.802-2.03q2.05-1.982 2.077-5.303-.006-1.936-.908-3.562-.904-1.626-2.639-2.586l4.211-7.591h-4.471l-3.379 6.437h-3.524v-6.437h-3.922zm3.922-3.67v-7.36h2.484q2.392.046 3.365 1.141.974 1.096.939 2.7c.008 1.099-.334 1.949-1.026 2.579-.692.62-1.784.93-3.278.94zM49.383 79.563q3.035-.035 5.468-1.478a10.8 10.8 0 0 0 3.862-3.883q1.431-2.439 1.464-5.463-.033-3.036-1.464-5.475a10.76 10.76 0 0 0-3.862-3.877q-2.432-1.437-5.468-1.471-3.036.033-5.461 1.471a10.7 10.7 0 0 0-3.848 3.877q-1.425 2.439-1.457 5.475.032 3.024 1.457 5.463a10.76 10.76 0 0 0 3.848 3.883q2.425 1.443 5.461 1.478m0-3.865q-1.941-.022-3.489-.951a6.9 6.9 0 0 1-2.455-2.497q-.908-1.568-.928-3.511.02-1.941.928-3.511a6.9 6.9 0 0 1 2.455-2.497q1.548-.929 3.489-.95 1.94.021 3.496.95a6.94 6.94 0 0 1 2.469 2.497q.915 1.57.936 3.511-.021 1.943-.936 3.511a6.9 6.9 0 0 1-2.469 2.497q-1.555.929-3.496.951" style="fill:#fff;fill-opacity:1;fill-rule:evenodd;stroke:none" transform="matrix(1.33333 0 0 -1.33333 0 279.68)"/><path d="M22.32 79.274h4.33l4.357-7.302 4.386 7.302h4.33l-6.783-11.17v-9.899h-3.923v9.986z" style="fill:#6dcef5;fill-opacity:1;fill-rule:evenodd;stroke:none" transform="matrix(1.33333 0 0 -1.33333 0 279.68)"/><path d="M61.618 79.274h3.922V65.245q.032-1.595 1.04-2.627 1.007-1.032 2.599-1.068 1.577.036 2.618 1.068t1.079 2.627v14.029h3.922V65.476q-.066-3.711-2.16-5.631-2.094-1.918-5.43-1.929-3.354.01-5.441 1.929t-2.149 5.631zM78.826 79.274h15.209v-3.749h-5.658v-17.32h-3.922v17.32h-5.629zM96.127 79.274h3.923v-8.631h8.09v8.631h3.92V58.205h-3.92v8.689h-8.09v-8.689h-3.923z" style="fill:#fff;fill-opacity:1;fill-rule:evenodd;stroke:none" transform="matrix(1.33333 0 0 -1.33333 0 279.68)"/></svg>