<?xml version="1.0" encoding="UTF-8"?>
<svg xmlns="http://www.w3.org/2000/svg" xmlns:xlink="http://www.w3.org/1999/xlink" width="32px" height="32px" viewBox="0 0 32 32" version="1.1">
<g id="surface1">
<path style=" stroke:none;fill-rule:nonzero;fill:rgb(24.3%,43.9%,100%);fill-opacity:1;" d="M 8.957031 3.089844 C 9.210938 3.300781 9.386719 3.476562 9.4375 3.8125 C 9.4375 4.058594 9.4375 4.308594 9.4375 4.5625 C 12.304688 4.5625 15.171875 4.5625 18.125 4.5625 C 18.125 4.292969 18.125 4.027344 18.125 3.75 C 18.234375 3.441406 18.304688 3.3125 18.542969 3.097656 C 18.890625 2.933594 19.207031 2.886719 19.578125 3.003906 C 19.835938 3.117188 19.964844 3.269531 20.125 3.5 C 20.199219 3.722656 20.195312 3.902344 20.191406 4.136719 C 20.191406 4.214844 20.191406 4.296875 20.191406 4.378906 C 20.1875 4.46875 20.1875 4.46875 20.1875 4.5625 C 20.222656 4.5625 20.261719 4.558594 20.296875 4.558594 C 21.871094 4.523438 23.210938 4.75 24.398438 5.867188 C 24.667969 6.152344 24.867188 6.476562 25.0625 6.8125 C 25.085938 6.851562 25.109375 6.894531 25.136719 6.933594 C 25.582031 7.734375 25.601562 8.613281 25.59375 9.503906 C 25.597656 9.621094 25.597656 9.742188 25.597656 9.859375 C 25.597656 10.105469 25.597656 10.351562 25.59375 10.597656 C 25.59375 10.910156 25.59375 11.226562 25.597656 11.539062 C 25.597656 11.785156 25.597656 12.027344 25.597656 12.269531 C 25.597656 12.386719 25.597656 12.503906 25.597656 12.617188 C 25.597656 12.78125 25.597656 12.941406 25.59375 13.105469 C 25.59375 13.152344 25.597656 13.199219 25.597656 13.246094 C 25.589844 13.570312 25.515625 13.75 25.3125 14 C 25.050781 14.242188 24.890625 14.300781 24.539062 14.328125 C 24.175781 14.304688 23.96875 14.175781 23.730469 13.910156 C 23.21875 13.308594 23.5 12.28125 23.5 11.625 C 17.066406 11.625 10.628906 11.625 4 11.625 C 4.007812 13.351562 4.015625 15.078125 4.023438 16.859375 C 4.027344 17.402344 4.027344 17.949219 4.03125 18.507812 C 4.03125 19 4.03125 19 4.035156 19.488281 C 4.035156 19.707031 4.035156 19.925781 4.039062 20.140625 C 4.039062 20.421875 4.039062 20.699219 4.042969 20.976562 C 4.042969 21.078125 4.042969 21.179688 4.042969 21.28125 C 4.042969 22.214844 4.066406 23.105469 4.726562 23.832031 C 5.164062 24.242188 5.71875 24.445312 6.3125 24.445312 C 6.425781 24.445312 6.425781 24.445312 6.542969 24.445312 C 6.625 24.445312 6.710938 24.445312 6.796875 24.445312 C 6.882812 24.445312 6.972656 24.445312 7.0625 24.445312 C 7.253906 24.449219 7.445312 24.449219 7.636719 24.449219 C 7.941406 24.449219 8.246094 24.449219 8.550781 24.449219 C 8.652344 24.449219 8.757812 24.453125 8.863281 24.453125 C 8.914062 24.453125 8.964844 24.453125 9.019531 24.453125 C 9.726562 24.453125 10.433594 24.457031 11.140625 24.457031 C 11.617188 24.457031 12.09375 24.460938 12.570312 24.460938 C 12.824219 24.464844 13.074219 24.464844 13.328125 24.464844 C 13.566406 24.464844 13.800781 24.464844 14.039062 24.464844 C 14.125 24.464844 14.214844 24.464844 14.300781 24.464844 C 14.835938 24.464844 15.277344 24.472656 15.679688 24.863281 C 15.871094 25.183594 15.9375 25.441406 15.875 25.8125 C 15.761719 26.140625 15.585938 26.300781 15.3125 26.5 C 15.109375 26.566406 14.964844 26.570312 14.753906 26.570312 C 14.675781 26.570312 14.597656 26.574219 14.519531 26.574219 C 14.429688 26.574219 14.34375 26.574219 14.257812 26.574219 C 14.167969 26.574219 14.078125 26.574219 13.988281 26.574219 C 13.6875 26.574219 13.390625 26.578125 13.089844 26.578125 C 12.988281 26.578125 12.886719 26.578125 12.78125 26.578125 C 12.296875 26.578125 11.8125 26.582031 11.328125 26.582031 C 10.769531 26.582031 10.210938 26.582031 9.65625 26.585938 C 9.222656 26.585938 8.789062 26.589844 8.359375 26.589844 C 8.101562 26.589844 7.84375 26.589844 7.585938 26.589844 C 7.34375 26.59375 7.101562 26.59375 6.855469 26.59375 C 6.769531 26.59375 6.679688 26.59375 6.59375 26.59375 C 5.351562 26.605469 4.238281 26.25 3.296875 25.421875 C 2.53125 24.660156 1.984375 23.621094 1.976562 22.527344 C 1.976562 22.472656 1.976562 22.417969 1.976562 22.359375 C 1.976562 22.300781 1.976562 22.238281 1.976562 22.175781 C 1.972656 21.976562 1.976562 21.773438 1.976562 21.574219 C 1.976562 21.429688 1.976562 21.285156 1.976562 21.140625 C 1.972656 20.746094 1.972656 20.355469 1.976562 19.964844 C 1.976562 19.554688 1.976562 19.140625 1.972656 18.730469 C 1.972656 17.996094 1.976562 17.261719 1.976562 16.527344 C 1.976562 15.863281 1.976562 15.199219 1.976562 14.535156 C 1.972656 13.761719 1.972656 12.988281 1.976562 12.214844 C 1.976562 11.804688 1.976562 11.398438 1.972656 10.988281 C 1.972656 10.605469 1.972656 10.21875 1.976562 9.835938 C 1.976562 9.695312 1.976562 9.554688 1.976562 9.414062 C 1.972656 8.046875 2.179688 6.988281 3.125 5.9375 C 3.15625 5.898438 3.191406 5.859375 3.226562 5.820312 C 3.894531 5.085938 4.957031 4.632812 5.9375 4.5625 C 6.417969 4.550781 6.894531 4.554688 7.375 4.5625 C 7.371094 4.5 7.371094 4.4375 7.367188 4.371094 C 7.363281 4.285156 7.363281 4.203125 7.359375 4.117188 C 7.355469 4.074219 7.355469 4.035156 7.351562 3.992188 C 7.347656 3.667969 7.421875 3.496094 7.625 3.25 C 8.03125 2.9375 8.492188 2.800781 8.957031 3.089844 Z M 4.5 7.5 C 4.03125 8.152344 4 8.777344 4 9.5625 C 10.433594 9.5625 16.871094 9.5625 23.5 9.5625 C 23.503906 8.265625 23.503906 8.265625 22.84375 7.253906 C 22.21875 6.746094 21.570312 6.613281 20.789062 6.621094 C 20.703125 6.621094 20.703125 6.621094 20.613281 6.621094 C 20.472656 6.621094 20.328125 6.625 20.1875 6.625 C 20.1875 6.6875 20.183594 6.75 20.183594 6.816406 C 20.179688 6.902344 20.175781 6.984375 20.171875 7.070312 C 20.171875 7.113281 20.171875 7.152344 20.167969 7.195312 C 20.148438 7.59375 20 7.820312 19.714844 8.085938 C 19.410156 8.230469 19.144531 8.238281 18.8125 8.1875 C 18.492188 8.027344 18.300781 7.839844 18.1875 7.5 C 18.167969 7.210938 18.144531 6.921875 18.125 6.625 C 15.257812 6.625 12.390625 6.625 9.4375 6.625 C 9.417969 6.894531 9.394531 7.160156 9.375 7.4375 C 9.265625 7.734375 9.1875 7.875 8.964844 8.09375 C 8.660156 8.226562 8.386719 8.230469 8.0625 8.1875 C 7.871094 8.09375 7.871094 8.09375 7.75 8 C 7.707031 8 7.667969 8 7.625 8 C 7.464844 7.691406 7.421875 7.425781 7.402344 7.082031 C 7.398438 7.039062 7.398438 6.996094 7.394531 6.949219 C 7.386719 6.839844 7.382812 6.734375 7.375 6.625 C 7.179688 6.621094 6.980469 6.617188 6.785156 6.617188 C 6.730469 6.617188 6.675781 6.613281 6.617188 6.613281 C 5.761719 6.609375 5.085938 6.855469 4.5 7.5 Z M 4.5 7.5 "/>
<path style=" stroke:none;fill-rule:nonzero;fill:rgb(24.3%,43.9%,100%);fill-opacity:1;" d="M 28.046875 17.136719 C 28.476562 17.570312 28.820312 18.035156 29.125 18.5625 C 29.144531 18.597656 29.167969 18.636719 29.1875 18.671875 C 29.78125 19.722656 30.023438 20.835938 30.023438 22.035156 C 30.023438 22.078125 30.023438 22.117188 30.023438 22.160156 C 30.019531 22.847656 29.960938 23.472656 29.75 24.125 C 29.730469 24.1875 29.730469 24.1875 29.710938 24.253906 C 29.167969 25.972656 27.910156 27.421875 26.320312 28.261719 C 24.644531 29.121094 22.738281 29.300781 20.929688 28.753906 C 19.140625 28.164062 17.667969 26.910156 16.804688 25.238281 C 16.398438 24.417969 16.097656 23.480469 16.0625 22.5625 C 16.058594 22.492188 16.054688 22.421875 16.054688 22.347656 C 16.011719 20.574219 16.5625 18.9375 17.6875 17.5625 C 17.730469 17.507812 17.773438 17.457031 17.816406 17.402344 C 18.976562 16.035156 20.703125 15.25 22.46875 15.074219 C 24.566406 14.964844 26.542969 15.664062 28.046875 17.136719 Z M 19.648438 18.527344 C 19.597656 18.582031 19.550781 18.632812 19.5 18.6875 C 19.460938 18.726562 19.425781 18.765625 19.386719 18.804688 C 18.519531 19.730469 18.082031 20.96875 18.109375 22.234375 C 18.214844 23.621094 18.789062 24.914062 19.855469 25.832031 C 20.695312 26.492188 21.675781 26.925781 22.75 27 C 22.792969 27.003906 22.835938 27.007812 22.882812 27.007812 C 23.679688 27.042969 24.476562 26.851562 25.1875 26.5 C 25.246094 26.472656 25.300781 26.449219 25.359375 26.421875 C 25.859375 26.171875 26.234375 25.828125 26.625 25.4375 C 26.667969 25.394531 26.707031 25.355469 26.75 25.3125 C 27.695312 24.316406 27.972656 23.019531 27.953125 21.695312 C 27.921875 20.597656 27.421875 19.554688 26.6875 18.75 C 26.632812 18.6875 26.632812 18.6875 26.574219 18.621094 C 25.714844 17.6875 24.460938 17.195312 23.214844 17.128906 C 21.847656 17.085938 20.636719 17.609375 19.648438 18.527344 Z M 19.648438 18.527344 "/>
<path style=" stroke:none;fill-rule:nonzero;fill:rgb(24.3%,43.9%,100%);fill-opacity:1;" d="M 23.507812 19.039062 C 23.789062 19.183594 23.957031 19.394531 24.0625 19.6875 C 24.089844 19.925781 24.085938 20.160156 24.078125 20.402344 C 24.078125 20.464844 24.074219 20.53125 24.074219 20.59375 C 24.070312 20.75 24.066406 20.90625 24.0625 21.0625 C 24.101562 21.0625 24.136719 21.058594 24.175781 21.058594 C 24.351562 21.054688 24.523438 21.050781 24.695312 21.046875 C 24.753906 21.042969 24.8125 21.042969 24.875 21.039062 C 25.242188 21.035156 25.460938 21.0625 25.75 21.3125 C 26.003906 21.59375 26.082031 21.800781 26.074219 22.183594 C 26.046875 22.460938 25.90625 22.644531 25.738281 22.859375 C 25.300781 23.210938 24.707031 23.144531 24.175781 23.144531 C 24.035156 23.144531 23.898438 23.144531 23.757812 23.148438 C 22.695312 23.152344 22.695312 23.152344 22.339844 22.855469 C 22.019531 22.503906 21.980469 22.117188 21.980469 21.664062 C 21.980469 21.613281 21.980469 21.5625 21.980469 21.511719 C 21.980469 21.40625 21.980469 21.304688 21.980469 21.199219 C 21.980469 21.039062 21.980469 20.882812 21.976562 20.722656 C 21.976562 20.621094 21.976562 20.519531 21.976562 20.417969 C 21.976562 20.371094 21.976562 20.324219 21.976562 20.273438 C 21.980469 19.917969 22.027344 19.546875 22.277344 19.277344 C 22.644531 18.964844 23.042969 18.898438 23.507812 19.039062 Z M 23.507812 19.039062 "/>
</g>
</svg>
