<?xml version="1.0" encoding="UTF-8"?>
<svg xmlns="http://www.w3.org/2000/svg" xmlns:xlink="http://www.w3.org/1999/xlink" width="32px" height="32px" viewBox="0 0 32 32" version="1.1">
<g id="surface1">
<path style=" stroke:none;fill-rule:nonzero;fill:rgb(24.3%,43.9%,100%);fill-opacity:1;" d="M 2.347656 11.117188 C 2.390625 11.117188 2.429688 11.117188 2.472656 11.113281 C 2.613281 11.113281 2.753906 11.113281 2.894531 11.113281 C 2.996094 11.113281 3.09375 11.113281 3.195312 11.113281 C 3.527344 11.113281 3.855469 11.109375 4.1875 11.109375 C 4.300781 11.109375 4.414062 11.109375 4.527344 11.109375 C 5.0625 11.109375 5.601562 11.105469 6.136719 11.105469 C 6.753906 11.105469 7.371094 11.105469 7.988281 11.101562 C 8.464844 11.101562 8.941406 11.097656 9.417969 11.097656 C 9.703125 11.097656 9.988281 11.097656 10.273438 11.097656 C 10.542969 11.09375 10.808594 11.09375 11.078125 11.09375 C 11.175781 11.09375 11.273438 11.09375 11.371094 11.09375 C 12.257812 11.085938 12.898438 11.25 13.554688 11.859375 C 14.140625 12.464844 14.261719 13.210938 14.257812 14.023438 C 14.257812 14.082031 14.257812 14.140625 14.257812 14.199219 C 14.257812 14.394531 14.257812 14.585938 14.257812 14.78125 C 14.257812 14.917969 14.257812 15.058594 14.257812 15.195312 C 14.261719 15.574219 14.261719 15.949219 14.261719 16.324219 C 14.261719 16.5625 14.261719 16.796875 14.261719 17.03125 C 14.261719 17.8125 14.261719 18.589844 14.261719 19.371094 C 14.261719 19.414062 14.261719 19.453125 14.261719 19.496094 C 14.261719 19.539062 14.261719 19.582031 14.261719 19.625 C 14.261719 20.304688 14.261719 20.988281 14.261719 21.667969 C 14.265625 22.367188 14.265625 23.066406 14.265625 23.765625 C 14.265625 24.160156 14.265625 24.550781 14.265625 24.945312 C 14.265625 25.3125 14.265625 25.683594 14.265625 26.054688 C 14.265625 26.1875 14.265625 26.324219 14.265625 26.457031 C 14.265625 26.644531 14.265625 26.828125 14.265625 27.015625 C 14.265625 27.066406 14.265625 27.121094 14.265625 27.175781 C 14.261719 27.972656 14.050781 28.671875 13.5 29.261719 C 12.804688 29.894531 11.988281 29.964844 11.085938 29.960938 C 10.988281 29.964844 10.890625 29.964844 10.796875 29.964844 C 10.535156 29.964844 10.273438 29.964844 10.011719 29.964844 C 9.792969 29.964844 9.574219 29.964844 9.355469 29.964844 C 8.839844 29.964844 8.324219 29.964844 7.808594 29.964844 C 7.277344 29.964844 6.75 29.964844 6.21875 29.96875 C 5.761719 29.96875 5.304688 29.96875 4.847656 29.96875 C 4.574219 29.96875 4.300781 29.96875 4.03125 29.96875 C 3.773438 29.96875 3.519531 29.96875 3.261719 29.96875 C 3.167969 29.96875 3.074219 29.96875 2.980469 29.96875 C 2.078125 29.976562 1.304688 29.816406 0.625 29.1875 C 0.167969 28.660156 -0.0390625 28.050781 -0.03125 27.363281 C -0.03125 27.300781 -0.03125 27.238281 -0.03125 27.175781 C -0.0351562 26.972656 -0.03125 26.769531 -0.03125 26.566406 C -0.03125 26.421875 -0.03125 26.273438 -0.03125 26.128906 C -0.0351562 25.730469 -0.03125 25.335938 -0.03125 24.9375 C -0.03125 24.566406 -0.03125 24.191406 -0.03125 23.820312 C -0.03125 23.082031 -0.03125 22.339844 -0.0273438 21.601562 C -0.0273438 20.886719 -0.0273438 20.167969 -0.0273438 19.453125 C -0.0273438 18.671875 -0.0273438 17.890625 -0.0273438 17.109375 C -0.0273438 16.695312 -0.0273438 16.28125 -0.0273438 15.871094 C -0.0273438 15.480469 -0.0273438 15.09375 -0.0273438 14.703125 C -0.0273438 14.5625 -0.0273438 14.417969 -0.0273438 14.277344 C -0.0273438 14.082031 -0.0234375 13.886719 -0.0234375 13.691406 C -0.0234375 13.636719 -0.0234375 13.582031 -0.0234375 13.523438 C -0.0195312 12.871094 0.203125 12.367188 0.625 11.875 C 1.105469 11.414062 1.679688 11.117188 2.347656 11.117188 Z M 2.1875 13.4375 C 2.089844 13.636719 2.117188 13.847656 2.117188 14.066406 C 2.117188 14.117188 2.117188 14.171875 2.117188 14.226562 C 2.117188 14.402344 2.117188 14.582031 2.117188 14.757812 C 2.117188 14.886719 2.117188 15.011719 2.117188 15.140625 C 2.117188 15.484375 2.117188 15.828125 2.117188 16.175781 C 2.117188 16.535156 2.117188 16.894531 2.121094 17.257812 C 2.121094 17.941406 2.121094 18.621094 2.121094 19.304688 C 2.121094 20.230469 2.121094 21.152344 2.121094 22.074219 C 2.121094 23.527344 2.125 24.984375 2.125 26.4375 C 5.40625 26.4375 8.683594 26.4375 12.0625 26.4375 C 12.066406 24.144531 12.066406 24.144531 12.070312 21.847656 C 12.074219 20.914062 12.074219 19.976562 12.078125 19.042969 C 12.078125 18.359375 12.078125 17.679688 12.082031 17 C 12.082031 16.636719 12.082031 16.277344 12.082031 15.914062 C 12.082031 15.578125 12.085938 15.238281 12.082031 14.898438 C 12.082031 14.773438 12.085938 14.648438 12.085938 14.523438 C 12.085938 14.351562 12.085938 14.183594 12.085938 14.015625 C 12.085938 13.964844 12.085938 13.914062 12.085938 13.863281 C 12.085938 13.605469 12.085938 13.605469 11.980469 13.378906 C 11.761719 13.242188 11.570312 13.242188 11.316406 13.242188 C 11.242188 13.242188 11.164062 13.242188 11.085938 13.238281 C 11 13.238281 10.914062 13.238281 10.828125 13.238281 C 10.738281 13.238281 10.648438 13.238281 10.558594 13.238281 C 10.3125 13.238281 10.066406 13.238281 9.824219 13.238281 C 9.671875 13.238281 9.519531 13.238281 9.363281 13.238281 C 8.886719 13.234375 8.410156 13.234375 7.929688 13.234375 C 7.378906 13.234375 6.824219 13.234375 6.273438 13.230469 C 5.847656 13.230469 5.421875 13.230469 4.992188 13.230469 C 4.738281 13.230469 4.484375 13.230469 4.230469 13.226562 C 3.988281 13.226562 3.75 13.226562 3.507812 13.226562 C 3.421875 13.226562 3.332031 13.226562 3.246094 13.226562 C 3.125 13.226562 3.003906 13.226562 2.886719 13.226562 C 2.785156 13.226562 2.785156 13.226562 2.679688 13.226562 C 2.472656 13.253906 2.355469 13.3125 2.1875 13.4375 Z M 6.5625 27.4375 C 6.382812 27.648438 6.257812 27.84375 6.25 28.125 C 6.308594 28.386719 6.394531 28.578125 6.574219 28.777344 C 6.800781 28.902344 6.992188 28.949219 7.25 28.9375 C 7.542969 28.835938 7.714844 28.703125 7.875 28.4375 C 7.953125 28.179688 7.957031 27.992188 7.867188 27.734375 C 7.699219 27.488281 7.546875 27.347656 7.261719 27.253906 C 6.996094 27.25 6.792969 27.300781 6.5625 27.4375 Z M 6.5625 27.4375 "/>
<path style=" stroke:none;fill-rule:nonzero;fill:rgb(24.3%,43.9%,100%);fill-opacity:1;" d="M 6.003906 2.054688 C 6.082031 2.054688 6.15625 2.054688 6.234375 2.054688 C 6.320312 2.054688 6.40625 2.054688 6.488281 2.054688 C 6.582031 2.054688 6.671875 2.054688 6.761719 2.050781 C 7.007812 2.050781 7.257812 2.050781 7.503906 2.050781 C 7.769531 2.050781 8.039062 2.050781 8.304688 2.050781 C 8.953125 2.050781 9.597656 2.046875 10.242188 2.046875 C 10.546875 2.046875 10.851562 2.046875 11.15625 2.046875 C 12.167969 2.046875 13.179688 2.042969 14.1875 2.042969 C 14.453125 2.042969 14.714844 2.042969 14.976562 2.042969 C 15.042969 2.042969 15.105469 2.042969 15.175781 2.042969 C 16.230469 2.042969 17.285156 2.042969 18.34375 2.039062 C 19.425781 2.039062 20.511719 2.035156 21.597656 2.035156 C 22.207031 2.035156 22.816406 2.035156 23.421875 2.035156 C 23.941406 2.03125 24.460938 2.03125 24.980469 2.03125 C 25.242188 2.03125 25.507812 2.03125 25.773438 2.03125 C 26.015625 2.03125 26.257812 2.03125 26.5 2.03125 C 26.585938 2.03125 26.675781 2.03125 26.761719 2.03125 C 27.507812 2.023438 28.230469 2.121094 28.8125 2.621094 C 29.386719 3.210938 29.59375 3.835938 29.585938 4.648438 C 29.585938 4.710938 29.585938 4.773438 29.585938 4.835938 C 29.589844 5.042969 29.585938 5.25 29.585938 5.457031 C 29.585938 5.605469 29.585938 5.753906 29.585938 5.902344 C 29.589844 6.304688 29.589844 6.707031 29.585938 7.109375 C 29.585938 7.363281 29.585938 7.613281 29.585938 7.863281 C 29.585938 7.90625 29.585938 7.949219 29.585938 7.992188 C 29.585938 8.078125 29.585938 8.164062 29.585938 8.246094 C 29.589844 9.042969 29.585938 9.839844 29.585938 10.636719 C 29.585938 11.320312 29.585938 12.003906 29.585938 12.6875 C 29.589844 13.480469 29.589844 14.273438 29.585938 15.066406 C 29.585938 15.152344 29.585938 15.238281 29.585938 15.324219 C 29.585938 15.363281 29.585938 15.40625 29.585938 15.449219 C 29.585938 15.742188 29.585938 16.035156 29.589844 16.328125 C 29.589844 16.722656 29.589844 17.117188 29.585938 17.511719 C 29.585938 17.65625 29.585938 17.800781 29.585938 17.945312 C 29.585938 18.144531 29.585938 18.34375 29.585938 18.539062 C 29.585938 18.597656 29.585938 18.652344 29.585938 18.710938 C 29.582031 19.410156 29.363281 19.988281 28.882812 20.5 C 28.402344 20.949219 27.878906 21.136719 27.226562 21.132812 C 27.179688 21.132812 27.132812 21.132812 27.085938 21.132812 C 26.929688 21.132812 26.769531 21.132812 26.613281 21.132812 C 26.503906 21.132812 26.390625 21.132812 26.277344 21.132812 C 25.972656 21.132812 25.667969 21.132812 25.363281 21.132812 C 25.046875 21.132812 24.730469 21.132812 24.410156 21.128906 C 23.808594 21.128906 23.207031 21.128906 22.601562 21.128906 C 21.917969 21.128906 21.230469 21.128906 20.546875 21.128906 C 19.132812 21.128906 17.722656 21.125 16.3125 21.125 C 16.3125 20.402344 16.3125 19.679688 16.3125 18.9375 C 19.941406 18.917969 23.574219 18.894531 27.3125 18.875 C 27.3125 14.070312 27.3125 9.265625 27.3125 4.3125 C 20.238281 4.292969 13.164062 4.269531 5.875 4.25 C 5.855469 5.839844 5.832031 7.425781 5.8125 9.0625 C 5.089844 9.0625 4.367188 9.0625 3.625 9.0625 C 3.621094 7.90625 3.621094 7.90625 3.617188 7.40625 C 3.617188 7.070312 3.617188 6.730469 3.617188 6.394531 C 3.613281 6.121094 3.613281 5.847656 3.613281 5.574219 C 3.613281 5.472656 3.613281 5.367188 3.613281 5.265625 C 3.605469 4.351562 3.671875 3.613281 4.171875 2.828125 C 4.675781 2.324219 5.292969 2.054688 6.003906 2.054688 Z M 6.003906 2.054688 "/>
<path style=" stroke:none;fill-rule:nonzero;fill:rgb(24.3%,43.9%,100%);fill-opacity:1;" d="M 16.3125 21.9375 C 18.222656 21.933594 20.136719 21.925781 22.046875 21.925781 C 22.273438 21.925781 22.5 21.925781 22.722656 21.921875 C 22.769531 21.921875 22.8125 21.921875 22.859375 21.921875 C 23.585938 21.921875 24.316406 21.921875 25.042969 21.917969 C 25.789062 21.914062 26.535156 21.914062 27.28125 21.914062 C 27.699219 21.914062 28.121094 21.914062 28.539062 21.910156 C 28.933594 21.910156 29.328125 21.910156 29.722656 21.910156 C 29.867188 21.910156 30.011719 21.910156 30.15625 21.90625 C 30.355469 21.90625 30.554688 21.90625 30.75 21.90625 C 30.808594 21.90625 30.863281 21.90625 30.925781 21.90625 C 31.347656 21.910156 31.621094 22.003906 31.929688 22.304688 C 32.113281 22.664062 32.046875 23.148438 31.941406 23.523438 C 31.703125 24.121094 31.386719 24.511719 30.8125 24.8125 C 30.421875 24.972656 30.074219 25.027344 29.652344 25.023438 C 29.597656 25.023438 29.539062 25.023438 29.480469 25.023438 C 29.289062 25.023438 29.097656 25.023438 28.90625 25.019531 C 28.769531 25.019531 28.632812 25.019531 28.496094 25.019531 C 28.121094 25.019531 27.75 25.019531 27.378906 25.019531 C 26.988281 25.019531 26.601562 25.019531 26.210938 25.015625 C 25.558594 25.015625 24.90625 25.015625 24.253906 25.015625 C 23.582031 25.011719 22.910156 25.011719 22.238281 25.011719 C 22.175781 25.011719 22.175781 25.011719 22.109375 25.011719 C 21.902344 25.011719 21.695312 25.007812 21.484375 25.007812 C 19.761719 25.007812 18.035156 25.003906 16.3125 25 C 16.3125 23.988281 16.3125 22.980469 16.3125 21.9375 Z M 16.3125 21.9375 "/>
</g>
</svg>