<?xml version="1.0" encoding="UTF-8"?>
<svg xmlns="http://www.w3.org/2000/svg" width="32px" height="32px" viewBox="0 0 28 28" fill="none" stroke="currentColor" stroke-width="2">
<g id="surface1">
<path style=" stroke:none;fill-rule:nonzero;fill:rgb(0%,0%,0%);fill-opacity:1;" d="M 4.671875 3.054688 C 4.761719 3.054688 4.761719 3.054688 4.851562 3.054688 C 4.949219 3.054688 4.949219 3.054688 5.046875 3.054688 C 5.152344 3.054688 5.152344 3.054688 5.257812 3.054688 C 5.449219 3.054688 5.640625 3.054688 5.832031 3.054688 C 6.039062 3.054688 6.246094 3.054688 6.453125 3.054688 C 6.902344 3.050781 7.355469 3.050781 7.808594 3.050781 C 8.089844 3.050781 8.371094 3.050781 8.65625 3.050781 C 9.4375 3.050781 10.21875 3.050781 11 3.050781 C 11.050781 3.050781 11.101562 3.050781 11.152344 3.050781 C 11.203125 3.050781 11.253906 3.050781 11.304688 3.050781 C 11.40625 3.050781 11.507812 3.050781 11.609375 3.050781 C 11.683594 3.050781 11.683594 3.050781 11.761719 3.050781 C 12.578125 3.050781 13.394531 3.046875 14.210938 3.046875 C 15.050781 3.046875 15.886719 3.042969 16.726562 3.042969 C 17.199219 3.042969 17.667969 3.042969 18.140625 3.042969 C 18.539062 3.042969 18.941406 3.042969 19.339844 3.042969 C 19.546875 3.042969 19.75 3.042969 19.953125 3.042969 C 20.175781 3.042969 20.398438 3.042969 20.621094 3.042969 C 20.683594 3.042969 20.75 3.042969 20.816406 3.042969 C 21.398438 3.042969 21.878906 3.144531 22.3125 3.554688 C 22.78125 4.046875 22.828125 4.605469 22.828125 5.257812 C 22.828125 5.328125 22.828125 5.398438 22.828125 5.472656 C 22.832031 5.664062 22.832031 5.851562 22.832031 6.042969 C 22.832031 6.203125 22.832031 6.363281 22.832031 6.519531 C 22.832031 6.898438 22.832031 7.273438 22.832031 7.648438 C 22.832031 8.035156 22.832031 8.425781 22.835938 8.8125 C 22.835938 9.144531 22.835938 9.480469 22.835938 9.8125 C 22.835938 10.011719 22.835938 10.210938 22.839844 10.410156 C 22.839844 10.628906 22.839844 10.851562 22.839844 11.074219 C 22.839844 11.136719 22.839844 11.203125 22.839844 11.273438 C 22.835938 11.714844 22.835938 11.714844 22.679688 11.933594 C 22.484375 12.0625 22.375 12.066406 22.148438 12.03125 C 22.007812 11.921875 21.9375 11.855469 21.902344 11.675781 C 21.902344 11.625 21.902344 11.574219 21.902344 11.519531 C 21.902344 11.460938 21.902344 11.402344 21.898438 11.339844 C 21.902344 11.277344 21.902344 11.210938 21.902344 11.144531 C 21.902344 11.042969 21.902344 11.042969 21.898438 10.9375 C 21.898438 10.789062 21.898438 10.640625 21.898438 10.492188 C 21.898438 10.257812 21.898438 10.023438 21.898438 9.789062 C 21.898438 9.417969 21.894531 9.046875 21.894531 8.671875 C 21.894531 8.007812 21.894531 7.34375 21.890625 6.675781 C 21.890625 6.445312 21.890625 6.210938 21.890625 5.976562 C 21.890625 5.796875 21.890625 5.617188 21.890625 5.4375 C 21.890625 5.375 21.890625 5.308594 21.890625 5.242188 C 21.886719 4.859375 21.867188 4.578125 21.644531 4.25 C 21.3125 3.925781 20.878906 3.976562 20.4375 3.976562 C 20.371094 3.976562 20.304688 3.976562 20.234375 3.976562 C 20.046875 3.976562 19.863281 3.976562 19.675781 3.976562 C 19.472656 3.976562 19.273438 3.976562 19.070312 3.976562 C 18.675781 3.976562 18.28125 3.976562 17.886719 3.976562 C 17.566406 3.976562 17.246094 3.976562 16.925781 3.976562 C 16.878906 3.976562 16.832031 3.976562 16.785156 3.976562 C 16.695312 3.976562 16.601562 3.976562 16.507812 3.976562 C 15.640625 3.972656 14.769531 3.976562 13.898438 3.976562 C 13.105469 3.976562 12.308594 3.976562 11.511719 3.972656 C 10.695312 3.972656 9.878906 3.972656 9.0625 3.972656 C 8.605469 3.972656 8.144531 3.972656 7.6875 3.972656 C 7.296875 3.972656 6.90625 3.972656 6.515625 3.972656 C 6.316406 3.972656 6.117188 3.972656 5.917969 3.972656 C 5.703125 3.96875 5.488281 3.972656 5.269531 3.972656 C 5.175781 3.972656 5.175781 3.972656 5.082031 3.96875 C 4.734375 3.972656 4.46875 4.003906 4.15625 4.15625 C 3.886719 4.433594 3.875 4.675781 3.875 5.050781 C 3.875 5.097656 3.875 5.144531 3.875 5.191406 C 3.871094 5.351562 3.871094 5.507812 3.871094 5.667969 C 3.871094 5.78125 3.871094 5.894531 3.871094 6.007812 C 3.867188 6.3125 3.867188 6.621094 3.867188 6.929688 C 3.863281 7.25 3.863281 7.574219 3.863281 7.894531 C 3.859375 8.503906 3.855469 9.113281 3.855469 9.71875 C 3.851562 10.414062 3.847656 11.105469 3.847656 11.800781 C 3.839844 13.226562 3.832031 14.652344 3.828125 16.078125 C 3.898438 16.078125 3.96875 16.078125 4.042969 16.078125 C 4.707031 16.070312 5.375 16.070312 6.039062 16.066406 C 6.378906 16.066406 6.722656 16.0625 7.066406 16.0625 C 7.394531 16.058594 7.726562 16.058594 8.054688 16.058594 C 8.179688 16.058594 8.308594 16.054688 8.433594 16.054688 C 8.609375 16.054688 8.785156 16.054688 8.960938 16.054688 C 9.015625 16.050781 9.066406 16.050781 9.121094 16.050781 C 9.351562 16.050781 9.480469 16.058594 9.683594 16.179688 C 9.808594 16.320312 9.839844 16.414062 9.875 16.597656 C 9.921875 16.839844 9.980469 16.960938 10.171875 17.117188 C 10.386719 17.1875 10.59375 17.179688 10.820312 17.179688 C 10.871094 17.183594 10.921875 17.183594 10.972656 17.183594 C 11.136719 17.183594 11.300781 17.183594 11.464844 17.183594 C 11.519531 17.183594 11.578125 17.183594 11.636719 17.1875 C 11.933594 17.1875 12.230469 17.1875 12.527344 17.1875 C 12.832031 17.1875 13.140625 17.191406 13.449219 17.191406 C 13.683594 17.195312 13.917969 17.195312 14.15625 17.195312 C 14.269531 17.195312 14.382812 17.195312 14.496094 17.195312 C 14.652344 17.199219 14.8125 17.199219 14.96875 17.199219 C 15.015625 17.199219 15.0625 17.199219 15.113281 17.199219 C 15.40625 17.195312 15.570312 17.148438 15.804688 16.953125 C 15.902344 16.816406 15.929688 16.675781 15.964844 16.511719 C 16.003906 16.339844 16.039062 16.238281 16.1875 16.132812 C 16.386719 16.035156 16.617188 16.066406 16.832031 16.0625 C 16.882812 16.0625 16.933594 16.0625 16.984375 16.0625 C 17.253906 16.058594 17.445312 16.0625 17.664062 16.242188 C 17.742188 16.398438 17.734375 16.507812 17.71875 16.679688 C 17.648438 16.832031 17.648438 16.832031 17.5 16.953125 C 17.390625 16.960938 17.28125 16.96875 17.171875 16.96875 C 16.941406 16.96875 16.941406 16.96875 16.761719 17.097656 C 16.710938 17.210938 16.667969 17.328125 16.625 17.445312 C 16.34375 17.855469 15.976562 18.03125 15.503906 18.132812 C 15.289062 18.167969 15.082031 18.171875 14.867188 18.171875 C 14.796875 18.171875 14.796875 18.171875 14.726562 18.171875 C 14.570312 18.171875 14.417969 18.171875 14.261719 18.171875 C 14.152344 18.171875 14.046875 18.171875 13.9375 18.171875 C 13.710938 18.171875 13.484375 18.171875 13.257812 18.171875 C 12.96875 18.167969 12.679688 18.171875 12.390625 18.171875 C 12.167969 18.171875 11.941406 18.171875 11.71875 18.171875 C 11.613281 18.171875 11.507812 18.171875 11.398438 18.171875 C 9.929688 18.175781 9.929688 18.175781 9.40625 17.71875 C 9.199219 17.492188 9.082031 17.292969 8.96875 17.007812 C 6.695312 16.988281 4.421875 16.972656 2.078125 16.953125 C 2.210938 17.8125 2.210938 17.8125 2.664062 18.519531 C 2.734375 18.59375 2.734375 18.59375 2.734375 18.703125 C 2.765625 18.71875 2.796875 18.734375 2.828125 18.746094 C 3.007812 18.839844 3.179688 18.953125 3.351562 19.0625 C 3.707031 19.25 4.035156 19.265625 4.429688 19.265625 C 4.511719 19.265625 4.511719 19.265625 4.59375 19.265625 C 4.773438 19.265625 4.957031 19.265625 5.136719 19.265625 C 5.265625 19.265625 5.398438 19.265625 5.527344 19.265625 C 5.84375 19.265625 6.160156 19.265625 6.476562 19.265625 C 6.84375 19.265625 7.210938 19.269531 7.578125 19.269531 C 8.238281 19.269531 8.894531 19.273438 9.550781 19.273438 C 9.589844 19.273438 9.628906 19.273438 9.671875 19.273438 C 10.109375 19.273438 10.546875 19.273438 10.984375 19.273438 C 11.144531 19.273438 11.304688 19.273438 11.464844 19.273438 C 11.523438 19.273438 11.523438 19.273438 11.582031 19.273438 C 12.238281 19.277344 12.890625 19.277344 13.546875 19.277344 C 13.914062 19.28125 14.28125 19.28125 14.648438 19.28125 C 14.996094 19.28125 15.339844 19.28125 15.683594 19.28125 C 15.8125 19.28125 15.9375 19.28125 16.066406 19.28125 C 16.238281 19.28125 16.410156 19.28125 16.585938 19.285156 C 16.636719 19.285156 16.683594 19.28125 16.738281 19.28125 C 17 19.285156 17.179688 19.296875 17.390625 19.46875 C 17.476562 19.636719 17.460938 19.773438 17.445312 19.960938 C 17.34375 20.089844 17.265625 20.160156 17.117188 20.234375 C 16.949219 20.238281 16.78125 20.242188 16.613281 20.242188 C 16.5625 20.242188 16.507812 20.242188 16.453125 20.242188 C 16.277344 20.242188 16.097656 20.242188 15.921875 20.242188 C 15.792969 20.242188 15.667969 20.242188 15.539062 20.242188 C 15.191406 20.242188 14.847656 20.242188 14.5 20.242188 C 14.210938 20.242188 13.921875 20.242188 13.632812 20.242188 C 12.988281 20.246094 12.34375 20.246094 11.703125 20.246094 C 11.664062 20.246094 11.625 20.246094 11.585938 20.246094 C 11.546875 20.246094 11.507812 20.246094 11.46875 20.246094 C 10.839844 20.246094 10.214844 20.246094 9.589844 20.246094 C 8.945312 20.246094 8.304688 20.246094 7.660156 20.246094 C 7.300781 20.246094 6.9375 20.246094 6.578125 20.246094 C 6.238281 20.25 5.898438 20.25 5.558594 20.246094 C 5.433594 20.246094 5.308594 20.246094 5.183594 20.25 C 3.976562 20.25 2.960938 20.15625 2.035156 19.285156 C 1.421875 18.632812 1.195312 17.832031 1.183594 16.953125 C 1.179688 16.898438 1.179688 16.84375 1.175781 16.789062 C 1.175781 16.738281 1.175781 16.6875 1.175781 16.632812 C 1.171875 16.585938 1.171875 16.539062 1.171875 16.488281 C 1.207031 16.335938 1.257812 16.242188 1.371094 16.136719 C 1.617188 16 1.933594 16.050781 2.203125 16.0625 C 2.269531 16.0625 2.335938 16.0625 2.40625 16.066406 C 2.570312 16.066406 2.734375 16.074219 2.898438 16.078125 C 2.898438 16.019531 2.898438 15.960938 2.898438 15.902344 C 2.894531 14.496094 2.894531 13.089844 2.894531 11.679688 C 2.890625 11 2.890625 10.320312 2.890625 9.640625 C 2.890625 9.046875 2.886719 8.453125 2.886719 7.859375 C 2.886719 7.546875 2.886719 7.230469 2.886719 6.917969 C 2.886719 6.621094 2.886719 6.328125 2.886719 6.03125 C 2.886719 5.921875 2.886719 5.8125 2.886719 5.707031 C 2.878906 4.183594 2.878906 4.183594 3.335938 3.609375 C 3.722656 3.246094 4.140625 3.054688 4.671875 3.054688 Z M 4.671875 3.054688 "/>
<path style=" stroke:none;fill-rule:nonzero;fill:rgb(0%,0%,0%);fill-opacity:1;" d="M 20.042969 12.953125 C 20.089844 12.953125 20.140625 12.953125 20.191406 12.953125 C 20.242188 12.953125 20.296875 12.953125 20.351562 12.953125 C 20.40625 12.953125 20.464844 12.953125 20.523438 12.953125 C 20.707031 12.949219 20.894531 12.949219 21.082031 12.949219 C 21.210938 12.949219 21.339844 12.949219 21.46875 12.949219 C 21.742188 12.949219 22.015625 12.949219 22.285156 12.949219 C 22.632812 12.949219 22.984375 12.945312 23.332031 12.945312 C 23.597656 12.945312 23.867188 12.941406 24.132812 12.941406 C 24.261719 12.941406 24.390625 12.941406 24.519531 12.941406 C 24.699219 12.941406 24.878906 12.941406 25.058594 12.941406 C 25.113281 12.941406 25.164062 12.941406 25.21875 12.941406 C 25.691406 12.941406 26.089844 13.03125 26.441406 13.359375 C 26.738281 13.695312 26.804688 14.015625 26.804688 14.449219 C 26.804688 14.488281 26.804688 14.527344 26.804688 14.570312 C 26.804688 14.703125 26.804688 14.835938 26.804688 14.96875 C 26.808594 15.066406 26.808594 15.160156 26.808594 15.257812 C 26.808594 15.570312 26.808594 15.882812 26.808594 16.199219 C 26.808594 16.304688 26.808594 16.414062 26.8125 16.523438 C 26.8125 17.03125 26.8125 17.539062 26.8125 18.046875 C 26.8125 18.632812 26.816406 19.21875 26.816406 19.808594 C 26.820312 20.261719 26.820312 20.714844 26.820312 21.167969 C 26.820312 21.4375 26.820312 21.710938 26.820312 21.980469 C 26.824219 22.234375 26.824219 22.488281 26.824219 22.746094 C 26.824219 22.835938 26.824219 22.929688 26.824219 23.023438 C 26.828125 23.570312 26.824219 24.070312 26.476562 24.523438 C 26.441406 24.550781 26.40625 24.578125 26.375 24.605469 C 26.339844 24.632812 26.304688 24.664062 26.269531 24.691406 C 25.890625 24.925781 25.550781 24.960938 25.113281 24.960938 C 25.027344 24.960938 25.027344 24.960938 24.941406 24.960938 C 24.75 24.960938 24.5625 24.960938 24.375 24.960938 C 24.242188 24.960938 24.109375 24.960938 23.976562 24.960938 C 23.703125 24.960938 23.425781 24.960938 23.148438 24.960938 C 22.796875 24.960938 22.445312 24.960938 22.089844 24.964844 C 21.820312 24.964844 21.546875 24.964844 21.273438 24.964844 C 21.144531 24.964844 21.015625 24.964844 20.886719 24.964844 C 20.703125 24.964844 20.519531 24.964844 20.339844 24.964844 C 20.285156 24.964844 20.230469 24.964844 20.175781 24.964844 C 19.675781 24.960938 19.277344 24.800781 18.921875 24.445312 C 18.6875 24.113281 18.640625 23.847656 18.640625 23.449219 C 18.640625 23.410156 18.640625 23.371094 18.640625 23.328125 C 18.640625 23.195312 18.640625 23.0625 18.640625 22.929688 C 18.636719 22.832031 18.636719 22.738281 18.636719 22.640625 C 18.636719 22.328125 18.636719 22.011719 18.636719 21.699219 C 18.636719 21.589844 18.636719 21.480469 18.632812 21.375 C 18.632812 20.863281 18.632812 20.355469 18.632812 19.847656 C 18.632812 19.261719 18.628906 18.675781 18.628906 18.085938 C 18.625 17.632812 18.625 17.179688 18.625 16.726562 C 18.625 16.453125 18.625 16.183594 18.625 15.914062 C 18.621094 15.65625 18.621094 15.402344 18.621094 15.148438 C 18.621094 15.054688 18.621094 14.960938 18.621094 14.867188 C 18.613281 13.957031 18.613281 13.957031 18.867188 13.5625 C 18.886719 13.53125 18.90625 13.5 18.925781 13.46875 C 19.1875 13.109375 19.613281 12.953125 20.042969 12.953125 Z M 19.65625 13.988281 C 19.519531 14.199219 19.515625 14.390625 19.515625 14.640625 C 19.515625 14.703125 19.515625 14.765625 19.515625 14.832031 C 19.515625 14.898438 19.515625 14.96875 19.515625 15.039062 C 19.515625 15.113281 19.515625 15.1875 19.515625 15.261719 C 19.515625 15.460938 19.515625 15.664062 19.519531 15.863281 C 19.519531 16.074219 19.519531 16.28125 19.519531 16.492188 C 19.519531 16.886719 19.519531 17.285156 19.519531 17.679688 C 19.519531 18.214844 19.519531 18.753906 19.519531 19.289062 C 19.519531 20.132812 19.523438 20.976562 19.523438 21.820312 C 21.636719 21.820312 23.746094 21.820312 25.921875 21.820312 C 25.925781 20.484375 25.925781 20.484375 25.929688 19.152344 C 25.929688 18.605469 25.933594 18.0625 25.933594 17.519531 C 25.9375 17.121094 25.9375 16.726562 25.9375 16.328125 C 25.9375 16.121094 25.9375 15.910156 25.9375 15.699219 C 25.941406 15.503906 25.941406 15.304688 25.941406 15.105469 C 25.941406 15 25.941406 14.894531 25.941406 14.785156 C 25.941406 14.722656 25.941406 14.660156 25.941406 14.59375 C 25.941406 14.539062 25.941406 14.480469 25.941406 14.425781 C 25.910156 14.195312 25.808594 14.050781 25.648438 13.890625 C 25.539062 13.875 25.539062 13.875 25.414062 13.875 C 25.367188 13.875 25.316406 13.875 25.265625 13.875 C 25.183594 13.875 25.183594 13.875 25.101562 13.875 C 25.046875 13.875 24.988281 13.875 24.929688 13.875 C 24.742188 13.871094 24.554688 13.871094 24.367188 13.871094 C 24.234375 13.871094 24.105469 13.871094 23.972656 13.871094 C 23.699219 13.871094 23.425781 13.871094 23.152344 13.871094 C 22.800781 13.871094 22.449219 13.867188 22.097656 13.867188 C 21.828125 13.867188 21.558594 13.867188 21.289062 13.867188 C 21.160156 13.867188 21.03125 13.863281 20.898438 13.863281 C 20.71875 13.863281 20.539062 13.863281 20.355469 13.863281 C 20.304688 13.863281 20.25 13.863281 20.195312 13.863281 C 19.90625 13.863281 19.90625 13.863281 19.65625 13.988281 Z M 19.523438 22.695312 C 19.464844 23.378906 19.464844 23.378906 19.707031 23.9375 C 19.871094 24.0625 20.046875 24.070312 20.246094 24.070312 C 20.292969 24.070312 20.335938 24.070312 20.382812 24.070312 C 20.433594 24.070312 20.480469 24.070312 20.53125 24.070312 C 20.585938 24.070312 20.636719 24.070312 20.691406 24.070312 C 20.863281 24.070312 21.039062 24.070312 21.210938 24.070312 C 21.332031 24.070312 21.453125 24.070312 21.574219 24.070312 C 21.824219 24.074219 22.078125 24.074219 22.332031 24.074219 C 22.652344 24.074219 22.976562 24.074219 23.300781 24.074219 C 23.550781 24.074219 23.796875 24.074219 24.046875 24.074219 C 24.167969 24.074219 24.285156 24.074219 24.40625 24.074219 C 24.570312 24.078125 24.738281 24.074219 24.90625 24.074219 C 24.980469 24.078125 24.980469 24.078125 25.054688 24.078125 C 25.339844 24.074219 25.570312 24.0625 25.800781 23.875 C 26.058594 23.546875 25.921875 23.078125 25.921875 22.695312 C 23.808594 22.695312 21.699219 22.695312 19.523438 22.695312 Z M 19.523438 22.695312 "/>
<path style=" stroke:none;fill-rule:nonzero;fill:rgb(0%,0%,0%);fill-opacity:1;" d="M 17.101562 7.78125 C 17.429688 8.082031 17.429688 8.082031 17.492188 8.351562 C 17.433594 8.578125 17.363281 8.667969 17.171875 8.804688 C 16.96875 8.832031 16.875 8.824219 16.703125 8.710938 C 16.65625 8.671875 16.609375 8.628906 16.558594 8.585938 C 16.507812 8.539062 16.457031 8.496094 16.402344 8.449219 C 16.347656 8.402344 16.296875 8.359375 16.242188 8.3125 C 15.089844 7.382812 13.605469 6.917969 12.128906 7.066406 C 10.796875 7.230469 9.675781 7.765625 8.699219 8.675781 C 8.53125 8.804688 8.53125 8.804688 8.359375 8.839844 C 8.164062 8.796875 8.070312 8.734375 7.929688 8.585938 C 7.875 8.457031 7.875 8.457031 7.875 8.3125 C 8.238281 7.457031 9.394531 6.898438 10.21875 6.554688 C 10.558594 6.421875 10.910156 6.320312 11.265625 6.234375 C 11.320312 6.222656 11.375 6.207031 11.433594 6.195312 C 13.488281 5.789062 15.535156 6.453125 17.101562 7.78125 Z M 17.101562 7.78125 "/>
<path style=" stroke:none;fill-rule:nonzero;fill:rgb(0%,0%,0%);fill-opacity:1;" d="M 12.46875 8.304688 C 13.699219 8.269531 14.800781 8.664062 15.710938 9.5 C 15.824219 9.621094 15.863281 9.6875 15.921875 9.851562 C 15.910156 10.054688 15.839844 10.191406 15.695312 10.335938 C 15.523438 10.371094 15.375 10.371094 15.203125 10.335938 C 15.074219 10.242188 14.96875 10.136719 14.855469 10.023438 C 14.101562 9.367188 13.191406 9.238281 12.226562 9.285156 C 11.515625 9.34375 10.910156 9.679688 10.375 10.140625 C 10.210938 10.277344 10.097656 10.367188 9.878906 10.378906 C 9.679688 10.335938 9.679688 10.335938 9.542969 10.21875 C 9.445312 10.03125 9.421875 9.941406 9.460938 9.734375 C 9.949219 8.960938 11.019531 8.5625 11.867188 8.367188 C 12.070312 8.324219 12.265625 8.316406 12.46875 8.304688 Z M 12.46875 8.304688 "/>
<path style=" stroke:none;fill-rule:nonzero;fill:rgb(0%,0%,0%);fill-opacity:1;" d="M 13.964844 10.71875 C 14.011719 10.753906 14.0625 10.789062 14.109375 10.828125 C 14.160156 10.867188 14.210938 10.90625 14.261719 10.945312 C 14.421875 11.082031 14.433594 11.128906 14.457031 11.335938 C 14.4375 11.539062 14.4375 11.539062 14.320312 11.699219 C 14.132812 11.835938 14.0625 11.835938 13.835938 11.8125 C 13.695312 11.734375 13.695312 11.734375 13.5625 11.628906 C 13.175781 11.34375 12.839844 11.257812 12.359375 11.320312 C 12.089844 11.417969 11.867188 11.554688 11.636719 11.722656 C 11.484375 11.8125 11.484375 11.8125 11.28125 11.808594 C 11.027344 11.738281 11.027344 11.738281 10.9375 11.59375 C 10.882812 11.414062 10.867188 11.308594 10.929688 11.132812 C 11.683594 10.226562 12.988281 10.140625 13.964844 10.71875 Z M 13.964844 10.71875 "/>
<path style=" stroke:none;fill-rule:nonzero;fill:rgb(0%,0%,0%);fill-opacity:1;" d="M 13.085938 12.363281 C 13.304688 12.519531 13.421875 12.699219 13.472656 12.960938 C 13.492188 13.253906 13.40625 13.4375 13.234375 13.671875 C 13.027344 13.859375 12.816406 13.863281 12.546875 13.855469 C 12.292969 13.820312 12.148438 13.6875 11.984375 13.5 C 11.890625 13.265625 11.886719 13.046875 11.921875 12.796875 C 12.167969 12.292969 12.578125 12.199219 13.085938 12.363281 Z M 13.085938 12.363281 "/>
<path style=" stroke:none;fill-rule:nonzero;fill:rgb(0%,0%,0%);fill-opacity:1;" d="M 22.78125 14.378906 C 22.96875 14.4375 22.96875 14.4375 23.105469 14.554688 C 23.214844 14.761719 23.195312 14.871094 23.132812 15.09375 C 23.046875 15.222656 22.988281 15.25 22.839844 15.300781 C 22.664062 15.316406 22.574219 15.292969 22.421875 15.203125 C 22.292969 15.046875 22.257812 14.964844 22.257812 14.761719 C 22.351562 14.484375 22.488281 14.382812 22.78125 14.378906 Z M 22.78125 14.378906 "/>
</g>
</svg>
