<svg width="517" height="270" viewBox="0 0 517 270" fill="none" xmlns="http://www.w3.org/2000/svg">
<path d="M171.341 205.4V160.6C171.341 157.667 172.341 155.133 174.341 153C176.475 150.867 179.141 149.8 182.341 149.8H299.141C302.341 149.8 304.941 150.867 306.941 153C309.075 155.133 310.141 157.667 310.141 160.6V205.4C310.141 208.2 309.075 210.667 306.941 212.8C304.941 214.933 302.341 216 299.141 216H182.341C179.141 216 176.475 214.933 174.341 212.8C172.341 210.667 171.341 208.2 171.341 205.4ZM178.141 67.4C175.475 67.4 173.141 66.4667 171.141 64.6C169.275 62.7333 168.341 60.5333 168.341 58V57.8C168.341 55.2667 169.275 53.1333 171.141 51.4C173.008 49.5333 175.275 48.6 177.941 48.6H190.941C201.741 48.6 210.941 52.3333 218.541 59.8C226.141 67.1333 229.941 76 229.941 86.4V102.4C229.941 105.333 228.875 107.867 226.741 110C224.608 112 222.008 113.067 218.941 113.2H218.741C215.675 113.2 213.008 112.133 210.741 110C208.608 107.733 207.541 105.133 207.541 102.2V85.6C207.541 80.5333 205.675 76.2667 201.941 72.8C198.341 69.2 193.941 67.4 188.741 67.4H178.141ZM165.341 124H240.341V106.2C240.341 103.4 241.341 100.933 243.341 98.8C245.475 96.6667 248.141 95.6 251.341 95.6C254.408 95.6 257.008 96.6667 259.141 98.8C261.275 100.933 262.341 103.4 262.341 106.2V124H316.141C318.808 124 321.008 124.933 322.741 126.8C324.608 128.667 325.541 130.8 325.541 133.2C325.541 135.6 324.608 137.733 322.741 139.6C321.008 141.467 318.808 142.4 316.141 142.4H165.341C162.675 142.4 160.408 141.467 158.541 139.6C156.808 137.733 155.941 135.6 155.941 133.2C155.941 130.8 156.808 128.667 158.541 126.8C160.408 124.933 162.675 124 165.341 124ZM241.941 67.4C239.275 67.4 236.941 66.4667 234.941 64.6C233.075 62.7333 232.141 60.5333 232.141 58V57.8C232.141 55.2667 233.075 53.1333 234.941 51.4C236.808 49.5333 239.075 48.6 241.741 48.6H270.941C281.608 48.6 290.741 52.3333 298.341 59.8C306.075 67.1333 309.941 76 309.941 86.4V102.4C309.941 105.333 308.875 107.867 306.741 110C304.608 112 302.008 113.067 298.941 113.2H298.741C295.675 113.2 293.008 112.133 290.741 110C288.608 107.867 287.541 105.267 287.541 102.2V85.6C287.541 80.5333 285.675 76.2667 281.941 72.8C278.341 69.2 273.941 67.4 268.741 67.4H241.941ZM193.141 168.2V197.6H288.341V168.2H193.141ZM476.888 134.4H460.288V205.4C460.288 208.2 459.222 210.667 457.088 212.8C454.955 214.933 452.355 216 449.288 216C446.222 216 443.622 214.933 441.488 212.8C439.355 210.667 438.288 208.2 438.288 205.4V58.8C438.288 56 439.288 53.5333 441.288 51.4C443.422 49.2667 446.088 48.2 449.288 48.2C452.355 48.2 454.955 49.2667 457.088 51.4C459.222 53.5333 460.288 56 460.288 58.8V116H476.688V58.8C476.688 56 477.755 53.5333 479.888 51.4C482.022 49.2667 484.622 48.2 487.688 48.2C490.888 48.2 493.488 49.2667 495.488 51.4C497.622 53.5333 498.688 56 498.688 58.8V205.4C498.688 208.2 497.622 210.667 495.488 212.8C493.488 214.933 490.888 216 487.688 216C484.622 216 482.022 214.933 479.888 212.8C477.888 210.667 476.888 208.2 476.888 205.4V134.4ZM372.688 69V189.8H420.288C423.088 189.8 425.355 190.733 427.088 192.6C428.955 194.467 429.888 196.6 429.888 199C429.888 201.533 428.955 203.667 427.088 205.4C425.355 207.267 423.088 208.2 420.288 208.2H361.888C358.688 208.2 356.022 207.133 353.888 205C351.888 202.867 350.888 200.4 350.888 197.6V61.2C350.888 58.4 351.888 55.9333 353.888 53.8C356.022 51.6667 358.688 50.6 361.888 50.6H420.288C423.088 50.6 425.355 51.5333 427.088 53.4C428.955 55.2667 429.888 57.4 429.888 59.8C429.888 62.2 428.955 64.3333 427.088 66.2C425.355 68.0667 423.088 69 420.288 69H372.688Z" fill="white"/>
<ellipse cx="66.7951" cy="120.565" rx="66.7951" ry="62.3421" fill="#3391FF"/>
<rect x="48.9844" y="160.641" width="35.624" height="57.8891" rx="6.5626" fill="#3391FF"/>
<circle cx="48.9839" cy="58.2222" r="17.812" fill="#3391FF"/>
<circle cx="80.1558" cy="58.2222" r="17.812" fill="#3391FF"/>
<ellipse cx="51.2109" cy="58.2226" rx="11.1327" ry="13.3593" fill="white"/>
<circle cx="55.664" cy="60.4492" r="6.67965" fill="black"/>
<ellipse cx="77.9257" cy="58.2226" rx="11.1327" ry="13.3593" fill="white"/>
<circle cx="82.3828" cy="60.4492" r="6.67965" fill="black"/>
<circle cx="66.7921" cy="120.566" r="31.171" fill="white"/>
</svg>
