<svg width="218" height="196" viewBox="0 0 218 196" fill="none" xmlns="http://www.w3.org/2000/svg">
<path d="M158.793 106.768V109.502C158.793 112.529 158.793 116.826 157.377 122.295L151.371 121.709C152.47 117.461 152.714 114.238 152.787 111.65H142.826V106.768H158.793ZM162.748 124.59V129.717H122.416V124.59H140.287V117.217H146.439V124.59H162.748ZM139.506 106.768V108.672C139.506 111.455 139.506 116.191 137.211 122.295L131.205 121.611C132.694 117.314 133.183 114.092 133.354 111.65H125.639V106.768H139.506ZM157.816 133.232V149.004H127.25V133.232H157.816ZM133.354 138.115V144.023H151.615V138.115H133.354ZM203.959 105.059V149.492H198.051V127.178H193.754V147.344H188.041V105.791H193.754V122.197H198.051V105.059H203.959ZM183.354 110.186V115.215H173.051V134.16C177.348 134.136 181.156 133.916 185.453 133.135L185.893 138.213C180.473 139.238 175.736 139.385 169.877 139.434H166.801V110.186H183.354Z" fill="#2F3237"/>
<path d="M37.875 178.922V179.609C37.875 180.484 37.875 181.891 37.4531 183.734L36.0312 183.594C36.3672 182.047 36.4219 180.914 36.4531 180.094H33.0312V178.922H37.875ZM39.2656 184.656V185.891H26.5312V184.656H32.4375V182.094H33.9062V184.656H39.2656ZM31.9219 178.922V179.422C31.9062 180.234 31.9062 181.75 31.2344 183.734L29.8125 183.562C30.3125 182.023 30.4297 180.898 30.4688 180.094H27.6094V178.922H31.9219ZM37.6875 187.281V192.156H28.0938V187.281H37.6875ZM29.5469 188.453V190.953H36.2188V188.453H29.5469ZM51.7031 178.922V179.609C51.7031 180.484 51.7031 181.891 51.2812 183.734L49.8594 183.594C50.1953 182.047 50.25 180.914 50.2812 180.094H46.8594V178.922H51.7031ZM53.0938 184.656V185.891H40.3594V184.656H46.2656V182.094H47.7344V184.656H53.0938ZM45.75 178.922V179.422C45.7344 180.234 45.7344 181.75 45.0625 183.734L43.6406 183.562C44.1406 182.023 44.2578 180.898 44.2969 180.094H41.4375V178.922H45.75ZM51.5156 187.281V192.156H41.9219V187.281H51.5156ZM43.375 188.453V190.953H50.0469V188.453H43.375ZM65.0781 178.328V184H67.3281V185.234H65.0781V192.328H63.6094V178.328H65.0781ZM62.3906 180.516V181.734H54.0938V180.516H57.5469V178.516H59.0312V180.516H62.3906ZM58.2969 182.766C60.2969 182.766 61.7656 184.109 61.7812 186.016C61.7656 187.938 60.2969 189.266 58.2969 189.281C56.2812 189.266 54.8125 187.938 54.8125 186.016C54.8125 184.109 56.2812 182.766 58.2969 182.766ZM58.2969 183.984C57.1094 183.984 56.2188 184.812 56.2344 186.016C56.2188 187.234 57.1094 188.047 58.2969 188.031C59.4844 188.047 60.3594 187.234 60.3594 186.016C60.3594 184.812 59.4844 183.984 58.2969 183.984ZM80.0312 178.328V192.328H78.625V178.328H80.0312ZM77.0781 178.688V191.641H75.6719V185.141H72.9375C72.1016 186.766 70.7734 188.188 68.7969 189.344L67.9531 188.281C70.9219 186.516 72.3516 184.164 72.6094 181.281H68.6094V180.062H74.0781C74.0703 181.43 73.8828 182.734 73.4531 183.953H75.6719V178.688H77.0781ZM97.75 178.328V192.328H96.3281V185.094H94.5156V191.609H93.1562V178.609H94.5156V183.875H96.3281V178.328H97.75ZM91.4531 180.016V181.219H87.6875V187.703C89.4062 187.688 90.7031 187.609 92.2031 187.328L92.3125 188.547C90.625 188.891 89.1875 188.953 87.1406 188.969H86.2031V180.016H91.4531ZM111.172 178.344V188.594H109.688V178.344H111.172ZM111.594 190.828V192.031H102.016V187.625H103.516V190.828H111.594ZM104.656 180.5C104.641 182.547 105.953 184.422 108.109 185.172L107.344 186.359C105.727 185.758 104.531 184.57 103.906 183.047C103.289 184.672 102.078 185.977 100.438 186.609L99.6406 185.438C101.844 184.625 103.141 182.609 103.141 180.5V179.109H104.656V180.5ZM128.969 178.328V186.484H127.484V182.969H124.859V181.734H127.484V178.328H128.969ZM128.969 187.141V192.156H119.734V187.141H128.969ZM121.203 188.312V190.953H127.516V188.312H121.203ZM122.312 180.719C122.312 182.469 123.578 184.203 125.688 184.938L124.922 186.109C123.352 185.555 122.188 184.43 121.578 183.047C120.969 184.586 119.742 185.82 118.078 186.406L117.312 185.234C119.469 184.5 120.797 182.641 120.797 180.719V180.391H117.766V179.172H125.312V180.391H122.312V180.719ZM138.359 179.203C138.359 182.766 135.922 185.297 131.859 186.438L131.25 185.281C134.477 184.375 136.484 182.625 136.781 180.422H131.984V179.203H138.359ZM142.797 178.344V186.266H141.312V183.078H138.422V181.844H141.312V178.344H142.797ZM142.797 186.844V192.141H133.641V186.844H142.797ZM135.094 188.031V190.953H141.328V188.031H135.094ZM151.875 180.641V181.844H144.922V180.641H147.672V178.734H149.141V180.641H151.875ZM148.406 182.688C150.188 182.688 151.438 184.016 151.453 185.906C151.438 187.812 150.188 189.156 148.406 189.156C146.656 189.156 145.359 187.812 145.375 185.906C145.359 184.016 146.656 182.688 148.406 182.688ZM148.406 183.922C147.391 183.922 146.688 184.75 146.688 185.906C146.688 187.094 147.391 187.891 148.406 187.891C149.406 187.891 150.141 187.094 150.141 185.906C150.141 184.75 149.406 183.922 148.406 183.922ZM156.938 178.328V192.328H155.531V185.375H153.922V191.672H152.516V178.641H153.922V184.156H155.531V178.328H156.938ZM170.125 184.969V186.188H160.375V179.578H170V180.797H161.844V184.969H170.125ZM171.594 189.25V190.484H158.781V189.25H171.594ZM184.219 178.344V186.062H182.734V178.344H184.219ZM179.75 179V182.906H174.797V184.562C177.242 184.547 179.047 184.484 181.172 184.141L181.359 185.344C179.078 185.719 177.156 185.781 174.516 185.797H173.344V181.75H178.281V180.203H173.312V179H179.75ZM176.516 186.719V188.234H182.75V186.719H184.219V192.156H175.031V186.719H176.516ZM176.516 190.953H182.75V189.406H176.516V190.953ZM198.062 178.328V192.328H196.578V178.328H198.062ZM188.766 179.688V187.484C190.805 187.469 192.953 187.305 195.203 186.844L195.406 188.094C192.922 188.594 190.672 188.766 188.469 188.766H187.297V179.688H188.766ZM211.172 178.328V183.75H213.422V184.969H211.172V192.359H209.688V178.328H211.172ZM207.406 179.672V180.875H202.344V187.641C204.695 187.633 206.461 187.531 208.453 187.172L208.641 188.422C206.453 188.812 204.594 188.891 201.984 188.875H200.859V179.672H207.406ZM215.688 191.109C215.078 191.109 214.562 190.609 214.578 190C214.562 189.391 215.078 188.891 215.688 188.891C216.281 188.891 216.797 189.391 216.797 190C216.797 190.609 216.281 191.109 215.688 191.109Z" fill="#777D88"/>
<ellipse cx="60.5" cy="72.5995" rx="60.5" ry="56.4667" fill="#3391FF"/>
<rect x="44.3672" y="108.9" width="32.2667" height="52.4333" rx="6.5626" fill="#3391FF"/>
<circle cx="44.3667" cy="16.1333" r="16.1333" fill="#3391FF"/>
<circle cx="72.6001" cy="16.1333" r="16.1333" fill="#3391FF"/>
<ellipse cx="46.3831" cy="16.1332" rx="10.0833" ry="12.1" fill="white"/>
<circle cx="50.4172" cy="18.1496" r="6.05" fill="black"/>
<ellipse cx="70.5833" cy="16.1332" rx="10.0833" ry="12.1" fill="white"/>
<circle cx="74.6174" cy="18.1496" r="6.05" fill="black"/>
<circle cx="60.4999" cy="72.6005" r="28.2333" fill="white"/>
</svg>
